<svg width="64" height="80" viewBox="0 0 64 80" fill="none" xmlns="http://www.w3.org/2000/svg">
  <!-- Fondo del documento -->
  <rect x="2" y="2" width="60" height="76" rx="2" fill="white" stroke="#e5e7eb" stroke-width="1"/>
  
  <!-- Líneas de texto simuladas -->
  <rect x="8" y="12" width="48" height="2" rx="1" fill="#374151"/>
  <rect x="8" y="18" width="44" height="2" rx="1" fill="#374151"/>
  <rect x="8" y="24" width="40" height="2" rx="1" fill="#374151"/>
  <rect x="8" y="30" width="46" height="2" rx="1" fill="#374151"/>
  <rect x="8" y="36" width="42" height="2" rx="1" fill="#374151"/>
  <rect x="8" y="42" width="38" height="2" rx="1" fill="#374151"/>
  <rect x="8" y="48" width="45" height="2" rx="1" fill="#374151"/>
  <rect x="8" y="54" width="43" height="2" rx="1" fill="#374151"/>
  
  <!-- Espacio en blanco -->
  <rect x="8" y="60" width="48" height="2" rx="1" fill="#f3f4f6"/>
  <rect x="8" y="66" width="44" height="2" rx="1" fill="#374151"/>
  <rect x="8" y="72" width="40" height="2" rx="1" fill="#374151"/>
  
  <!-- Borde del documento -->
  <rect x="1" y="1" width="62" height="78" rx="3" stroke="#d1d5db" stroke-width="1" fill="none"/>
</svg>

